<svg width="40" height="40" viewBox="0 0 40 40" fill="none" xmlns="http://www.w3.org/2000/svg">
<g clip-path="url(#clip0_1070_15666)">
<path fill-rule="evenodd" clip-rule="evenodd" d="M15.1264 15.1269C15.5169 14.7364 16.1501 14.7364 16.5406 15.1269L20.0002 18.5864L23.4597 15.1269C23.8502 14.7364 24.4834 14.7364 24.8739 15.1269C25.2645 15.5174 25.2645 16.1506 24.8739 16.5411L21.4144 20.0007L24.8739 23.4602C25.2645 23.8507 25.2645 24.4839 24.8739 24.8744C24.4834 25.2649 23.8502 25.2649 23.4597 24.8744L20.0002 21.4149L16.5406 24.8744C16.1501 25.2649 15.5169 25.2649 15.1264 24.8744C14.7359 24.4839 14.7359 23.8507 15.1264 23.4602L18.5859 20.0007L15.1264 16.5411C14.7359 16.1506 14.7359 15.5174 15.1264 15.1269Z" fill="#242424"/>
</g>
<defs>
<clipPath id="clip0_1070_15666">
<rect width="20" height="20" fill="white" transform="translate(10 10)"/>
</clipPath>
</defs>
</svg>
