<svg width="20" height="20" viewBox="0 0 20 20" fill="none" xmlns="http://www.w3.org/2000/svg">
<path d="M17.5 8.33366H2.5M17.5 10.417V7.33366C17.5 5.93353 17.5 5.23346 17.2275 4.69868C16.9878 4.22828 16.6054 3.84583 16.135 3.60614C15.6002 3.33366 14.9001 3.33366 13.5 3.33366H6.5C5.09987 3.33366 4.3998 3.33366 3.86502 3.60614C3.39462 3.84583 3.01217 4.22828 2.77248 4.69868C2.5 5.23346 2.5 5.93353 2.5 7.33366V14.3337C2.5 15.7338 2.5 16.4339 2.77248 16.9686C3.01217 17.439 3.39462 17.8215 3.86502 18.0612C4.3998 18.3337 5.09987 18.3337 6.5 18.3337H10M13.3333 1.66699V5.00033M6.66667 1.66699V5.00033M12.0833 15.8337L13.75 17.5003L17.5 13.7503" stroke="black" stroke-width="2" stroke-linecap="round" stroke-linejoin="round"/>
</svg>
