<svg width="16" height="14" viewBox="0 0 16 14" fill="none" xmlns="http://www.w3.org/2000/svg">
<path fill-rule="evenodd" clip-rule="evenodd" d="M3.01167 0.0001248C3.02509 0.00012623 3.03854 0.000127661 3.05203 0.000127661H12.9473L12.9877 0.0001248C13.3308 8.96331e-05 13.6531 5.64929e-05 13.9107 0.0232189C14.1533 0.0450367 14.5615 0.0995731 14.9031 0.381606C15.3045 0.712995 15.528 1.21286 15.5073 1.73293C15.4897 2.17554 15.2582 2.5161 15.1126 2.7115C14.9581 2.91894 14.7432 3.15906 14.5144 3.41476L14.4875 3.44484L10.6833 7.69654C10.6773 7.70327 10.6717 7.70958 10.6663 7.71553C10.6663 7.7235 10.6663 7.73197 10.6663 7.741V11.3057C10.6663 11.3101 10.6664 11.3162 10.6666 11.324C10.6681 11.4055 10.6729 11.6641 10.5822 11.9072C10.5079 12.1064 10.387 12.2849 10.2297 12.4279C10.0377 12.6024 9.79575 12.694 9.71951 12.7228C9.71228 12.7256 9.70654 12.7277 9.70247 12.7294L7.4358 13.636C7.42864 13.6389 7.42131 13.6418 7.41382 13.6448C7.31179 13.6857 7.181 13.7381 7.06241 13.7735C6.9325 13.8123 6.68629 13.8737 6.39506 13.8132C6.05104 13.7417 5.74915 13.5373 5.55501 13.2445C5.39066 12.9966 5.35629 12.7451 5.34403 12.6101C5.33285 12.4869 5.33293 12.346 5.33299 12.2361C5.333 12.228 5.333 12.2201 5.333 12.2124V7.741C5.333 7.73197 5.333 7.7235 5.333 7.71553C5.32768 7.70958 5.32204 7.70327 5.31602 7.69654L1.51186 3.44484C1.50287 3.43479 1.4939 3.42476 1.48495 3.41476C1.25612 3.15906 1.04122 2.91893 0.8867 2.7115C0.74115 2.5161 0.509615 2.17554 0.492038 1.73293C0.471385 1.21286 0.694878 0.712996 1.09623 0.381606C1.4378 0.0995731 1.84599 0.0450367 2.08866 0.0232189C2.34628 5.64929e-05 2.66853 8.96331e-05 3.01167 0.0001248ZM2.9031 2.00021C2.9343 2.03517 2.96734 2.07212 3.00234 2.11125L6.8065 6.36295C6.81301 6.37023 6.8201 6.37809 6.82768 6.38648C6.90313 6.47007 7.02743 6.60778 7.12015 6.77319C7.19961 6.91493 7.25791 7.06752 7.2932 7.22613C7.3344 7.41124 7.33359 7.59674 7.3331 7.70934C7.33305 7.72065 7.333 7.73123 7.333 7.741V11.5231L8.66634 10.9898V7.741C8.66634 7.73123 8.66629 7.72065 8.66624 7.70934C8.66575 7.59674 8.66494 7.41124 8.70613 7.22613C8.74143 7.06752 8.79973 6.91493 8.87919 6.77319C8.97191 6.60777 9.09621 6.47007 9.17166 6.38648C9.17924 6.37808 9.18633 6.37023 9.19284 6.36295L12.997 2.11125C13.032 2.07212 13.065 2.03517 13.0962 2.00021C13.0494 2.00014 12.9998 2.00013 12.9473 2.00013H3.05203C2.99953 2.00013 2.94996 2.00014 2.9031 2.00021Z" fill="#163B6C"/>
</svg>
