<svg width="161" height="40" viewBox="0 0 161 40" fill="none" xmlns="http://www.w3.org/2000/svg">
<path d="M4.95998 23.1305H9.0992M3.77734 25.6111H7.91656M7.41994 12.1677C8.44412 12.7048 9.27459 13.5757 9.78668 14.6499C9.80618 14.6908 9.86184 14.6908 9.88135 14.6499C10.3934 13.5757 11.2239 12.7048 12.2481 12.1677C12.2871 12.1472 12.2871 12.0889 12.2481 12.0684C11.2239 11.5313 10.3934 10.6604 9.88135 9.58622C9.86184 9.54531 9.80618 9.54531 9.78668 9.58622C9.27459 10.6604 8.44412 11.5313 7.41994 12.0684C7.38093 12.0889 7.38093 12.1472 7.41994 12.1677Z" stroke="#212121" stroke-width="1.5" stroke-linecap="round"/>
<path d="M27.4905 26.0179V26.0179C28.0492 23.9608 26.8356 21.8361 24.7799 21.2724L23.4352 20.9036M27.4905 26.0179L14.8768 22.5586M27.4905 26.0179C26.9736 29.0292 25.1066 32.3662 24.1973 33.7225C24.1724 33.7596 24.1266 33.7739 24.0842 33.7597L22.3982 33.195C22.3458 33.1774 22.3167 33.121 22.3306 33.0675C22.3994 32.8034 22.5604 32.0188 22.3597 31.0463C22.3416 30.9581 22.2263 30.9424 22.1823 31.0208L21.1807 32.8069C21.1582 32.8471 21.1112 32.8666 21.0669 32.8542L15.6116 31.3298C15.5565 31.3144 15.5248 31.257 15.5415 31.2023C15.6546 30.8317 16.0307 29.497 15.925 28.452C15.9158 28.3613 15.8017 28.3387 15.7538 28.4161L14.3155 30.74C14.2917 30.7784 14.2452 30.796 14.2019 30.783L12.0457 30.1329C11.9591 30.1068 11.9401 29.9738 12.0048 29.9107C12.982 28.9579 14.3046 24.7023 14.8768 22.5586M14.8768 22.5586V22.5586C15.4355 20.5015 17.5548 19.2909 19.6105 19.8547L21.1424 20.2748M21.1424 20.2748L25.2368 4.85569C25.4023 4.23247 26.0362 3.85796 26.6619 4.01382V4.01382C27.3032 4.17358 27.6903 4.82843 27.5212 5.4674L23.4352 20.9036M21.1424 20.2748L23.4352 20.9036" stroke="#212121" stroke-width="1.5"/>
<path d="M48.304 31.072C46.1493 31.072 44.304 30.6133 42.768 29.696C41.232 28.7573 40.048 27.424 39.216 25.696C38.4053 23.968 38 21.9093 38 19.52C38 17.728 38.224 16.128 38.672 14.72C39.1413 13.2907 39.8133 12.0853 40.688 11.104C41.584 10.1013 42.672 9.33333 43.952 8.8C45.2533 8.26667 46.704 8 48.304 8C49.712 8 51.024 8.20267 52.24 8.608C53.456 9.01333 54.5013 9.61067 55.376 10.4C55.5893 10.592 55.728 10.7947 55.792 11.008C55.856 11.2213 55.856 11.424 55.792 11.616C55.7493 11.7867 55.6533 11.936 55.504 12.064C55.3547 12.1707 55.1733 12.224 54.96 12.224C54.768 12.2027 54.5547 12.096 54.32 11.904C53.5093 11.2 52.6027 10.6773 51.6 10.336C50.6187 9.99467 49.5307 9.824 48.336 9.824C46.5653 9.824 45.0613 10.208 43.824 10.976C42.608 11.7227 41.68 12.8213 41.04 14.272C40.4213 15.7227 40.112 17.472 40.112 19.52C40.112 21.5893 40.4213 23.3493 41.04 24.8C41.68 26.2507 42.608 27.36 43.824 28.128C45.0613 28.8747 46.5653 29.248 48.336 29.248C49.5093 29.248 50.5973 29.0773 51.6 28.736C52.6027 28.3733 53.52 27.84 54.352 27.136C54.5867 26.944 54.8 26.848 54.992 26.848C55.2053 26.848 55.376 26.912 55.504 27.04C55.6533 27.1467 55.76 27.296 55.824 27.488C55.888 27.6587 55.888 27.84 55.824 28.032C55.7813 28.224 55.664 28.4053 55.472 28.576C54.5547 29.408 53.488 30.0373 52.272 30.464C51.0773 30.8693 49.7547 31.072 48.304 31.072Z" fill="#212121"/>
<path d="M63.7895 31.072C62.3602 31.072 61.2508 30.624 60.4615 29.728C59.6935 28.832 59.3095 27.5627 59.3095 25.92V9.056C59.3095 8.71467 59.3948 8.46933 59.5655 8.32C59.7362 8.14933 59.9815 8.064 60.3015 8.064C60.6002 8.064 60.8348 8.14933 61.0055 8.32C61.1762 8.46933 61.2615 8.71467 61.2615 9.056V25.696C61.2615 26.9333 61.5068 27.8613 61.9975 28.48C62.4882 29.0773 63.2028 29.376 64.1415 29.376C64.3548 29.376 64.5362 29.3653 64.6855 29.344C64.8348 29.3227 64.9842 29.312 65.1335 29.312C65.3255 29.2907 65.4642 29.3333 65.5495 29.44C65.6562 29.5253 65.7095 29.7173 65.7095 30.016C65.7095 30.3147 65.6348 30.5387 65.4855 30.688C65.3362 30.8373 65.0908 30.944 64.7495 31.008C64.6002 31.0293 64.4402 31.04 64.2695 31.04C64.1202 31.0613 63.9602 31.072 63.7895 31.072Z" fill="#212121"/>
<path d="M74.3903 31.072C72.7903 31.072 71.4142 30.752 70.2622 30.112C69.1102 29.472 68.2249 28.5547 67.6063 27.36C66.9876 26.1653 66.6782 24.7467 66.6782 23.104C66.6782 21.4827 66.9876 20.0747 67.6063 18.88C68.2249 17.664 69.0782 16.7147 70.1662 16.032C71.2756 15.3493 72.5449 15.008 73.9743 15.008C75.0196 15.008 75.9369 15.1893 76.7262 15.552C77.5369 15.8933 78.2196 16.3947 78.7743 17.056C79.3503 17.696 79.7876 18.4853 80.0863 19.424C80.3849 20.3413 80.5342 21.3867 80.5342 22.56C80.5342 22.8587 80.4489 23.0827 80.2783 23.232C80.1289 23.3813 79.9156 23.456 79.6382 23.456H68.0863V22.016H79.3182L78.8063 22.432C78.8063 21.1947 78.6249 20.1493 78.2622 19.296C77.8996 18.4213 77.3556 17.7493 76.6302 17.28C75.9262 16.8107 75.0516 16.576 74.0062 16.576C72.8329 16.576 71.8409 16.8533 71.0303 17.408C70.2196 17.9413 69.6116 18.688 69.2062 19.648C68.8009 20.5867 68.5982 21.6747 68.5982 22.912V23.072C68.5982 25.12 69.0996 26.6987 70.1022 27.808C71.1049 28.896 72.5129 29.44 74.3262 29.44C75.1156 29.44 75.8729 29.3333 76.5983 29.12C77.3449 28.9067 78.0703 28.544 78.7743 28.032C78.9876 27.8827 79.1902 27.808 79.3822 27.808C79.5956 27.808 79.7663 27.8613 79.8942 27.968C80.0436 28.0747 80.1396 28.2133 80.1823 28.384C80.2463 28.5333 80.2356 28.704 80.1502 28.896C80.0863 29.0667 79.9476 29.2267 79.7342 29.376C79.0516 29.9307 78.2302 30.3573 77.2702 30.656C76.3102 30.9333 75.3503 31.072 74.3903 31.072Z" fill="#212121"/>
<path d="M88.6733 31.072C87.6279 31.072 86.6893 30.8693 85.8573 30.464C85.0466 30.0587 84.3959 29.504 83.9053 28.8C83.4359 28.096 83.2013 27.3067 83.2013 26.432C83.2013 25.28 83.4893 24.3733 84.0653 23.712C84.6413 23.0507 85.6119 22.592 86.9773 22.336C88.3426 22.0587 90.2199 21.92 92.6093 21.92H93.9853V23.36H92.6413C90.7213 23.36 89.2173 23.4453 88.1293 23.616C87.0626 23.7653 86.3159 24.0533 85.8893 24.48C85.4626 24.9067 85.2493 25.504 85.2493 26.272C85.2493 27.232 85.5799 28.0107 86.2413 28.608C86.9026 29.2053 87.7986 29.504 88.9293 29.504C89.8466 29.504 90.6466 29.2907 91.3293 28.864C92.0333 28.416 92.5879 27.808 92.9933 27.04C93.3986 26.272 93.6012 25.3973 93.6012 24.416V20.768C93.6012 19.3387 93.3133 18.304 92.7373 17.664C92.1613 17.0027 91.2439 16.672 89.9853 16.672C89.1746 16.672 88.3853 16.7787 87.6173 16.992C86.8706 17.2053 86.0706 17.5467 85.2173 18.016C84.9826 18.144 84.7693 18.1867 84.5773 18.144C84.4066 18.1013 84.2679 18.016 84.1613 17.888C84.0759 17.76 84.0119 17.6107 83.9693 17.44C83.9479 17.248 83.9799 17.0667 84.0653 16.896C84.1506 16.7253 84.2999 16.5867 84.5133 16.48C85.4093 15.9893 86.3159 15.6267 87.2333 15.392C88.1719 15.136 89.0786 15.008 89.9533 15.008C91.2119 15.008 92.2466 15.2213 93.0573 15.648C93.8893 16.0747 94.4973 16.7147 94.8813 17.568C95.2866 18.4213 95.4893 19.52 95.4893 20.864V30.016C95.4893 30.336 95.4146 30.5813 95.2653 30.752C95.1159 30.9227 94.8919 31.008 94.5933 31.008C94.2946 31.008 94.0599 30.9227 93.8893 30.752C93.7186 30.5813 93.6333 30.336 93.6333 30.016V27.072H93.9533C93.7612 27.904 93.4199 28.6187 92.9293 29.216C92.4386 29.8133 91.8306 30.272 91.1053 30.592C90.3799 30.912 89.5693 31.072 88.6733 31.072Z" fill="#212121"/>
<path d="M100.944 31.008C100.624 31.008 100.379 30.9227 100.208 30.752C100.037 30.5813 99.952 30.336 99.952 30.016V16.096C99.952 15.7547 100.037 15.4987 100.208 15.328C100.379 15.1573 100.624 15.072 100.944 15.072C101.243 15.072 101.467 15.1573 101.616 15.328C101.787 15.4987 101.872 15.7547 101.872 16.096V19.104L101.52 18.912C101.947 17.632 102.672 16.6613 103.696 16C104.741 15.3387 105.936 15.008 107.28 15.008C108.517 15.008 109.541 15.232 110.352 15.68C111.184 16.1067 111.803 16.768 112.208 17.664C112.613 18.56 112.816 19.68 112.816 21.024V30.016C112.816 30.336 112.731 30.5813 112.56 30.752C112.389 30.9227 112.155 31.008 111.856 31.008C111.536 31.008 111.291 30.9227 111.12 30.752C110.949 30.5813 110.864 30.336 110.864 30.016V21.184C110.864 19.6267 110.555 18.496 109.936 17.792C109.317 17.0667 108.336 16.704 106.992 16.704C105.456 16.704 104.219 17.184 103.28 18.144C102.363 19.0827 101.904 20.352 101.904 21.952V30.016C101.904 30.6773 101.584 31.008 100.944 31.008Z" fill="#212121"/>
<path d="M118.21 36.768C117.89 36.768 117.645 36.6827 117.474 36.512C117.304 36.3413 117.218 36.096 117.218 35.776V16.096C117.218 15.7547 117.304 15.4987 117.474 15.328C117.645 15.1573 117.89 15.072 118.21 15.072C118.509 15.072 118.744 15.1573 118.914 15.328C119.085 15.4987 119.17 15.7547 119.17 16.096V19.36L118.818 19.168C119.181 17.888 119.874 16.8747 120.898 16.128C121.922 15.3813 123.16 15.008 124.61 15.008C125.997 15.008 127.202 15.3387 128.226 16C129.272 16.6613 130.072 17.5893 130.626 18.784C131.202 19.9787 131.49 21.3973 131.49 23.04C131.49 24.6827 131.202 26.112 130.626 27.328C130.072 28.5227 129.282 29.4507 128.258 30.112C127.234 30.752 126.018 31.072 124.61 31.072C123.16 31.072 121.922 30.6987 120.898 29.952C119.874 29.2053 119.181 28.2133 118.818 26.976H119.17V35.776C119.17 36.096 119.085 36.3413 118.914 36.512C118.744 36.6827 118.509 36.768 118.21 36.768ZM124.322 29.44C125.368 29.44 126.274 29.1947 127.042 28.704C127.832 28.192 128.44 27.456 128.866 26.496C129.293 25.536 129.506 24.384 129.506 23.04C129.506 21.0133 129.037 19.4453 128.098 18.336C127.16 17.2267 125.901 16.672 124.322 16.672C123.277 16.672 122.36 16.928 121.57 17.44C120.802 17.9307 120.205 18.656 119.778 19.616C119.352 20.5547 119.138 21.696 119.138 23.04C119.138 25.088 119.608 26.6667 120.546 27.776C121.485 28.8853 122.744 29.44 124.322 29.44Z" fill="#212121"/>
<path d="M135.977 31.008C135.657 31.008 135.411 30.9227 135.241 30.752C135.07 30.5813 134.985 30.336 134.985 30.016V16.096C134.985 15.7547 135.07 15.4987 135.241 15.328C135.411 15.1573 135.657 15.072 135.977 15.072C136.275 15.072 136.499 15.1573 136.649 15.328C136.819 15.4987 136.905 15.7547 136.905 16.096V18.944H136.585C136.969 17.6853 137.651 16.7147 138.633 16.032C139.635 15.3493 140.83 14.9973 142.217 14.976C142.473 14.9547 142.686 15.008 142.857 15.136C143.027 15.264 143.113 15.4667 143.113 15.744C143.134 16.0427 143.07 16.2773 142.921 16.448C142.771 16.5973 142.526 16.6933 142.185 16.736L141.737 16.768C140.222 16.9173 139.049 17.4187 138.217 18.272C137.385 19.1253 136.969 20.2773 136.969 21.728V30.016C136.969 30.336 136.883 30.5813 136.713 30.752C136.563 30.9227 136.318 31.008 135.977 31.008Z" fill="#212121"/>
<path d="M151.27 31.072C149.82 31.072 148.561 30.7413 147.494 30.08C146.428 29.4187 145.596 28.4907 144.998 27.296C144.422 26.1013 144.134 24.6827 144.134 23.04C144.134 21.824 144.294 20.7253 144.614 19.744C144.956 18.7627 145.436 17.92 146.054 17.216C146.694 16.4907 147.452 15.9467 148.326 15.584C149.222 15.2 150.204 15.008 151.27 15.008C152.742 15.008 154.012 15.3387 155.078 16C156.145 16.6613 156.966 17.6 157.542 18.816C158.14 20.0107 158.438 21.4187 158.438 23.04C158.438 24.2773 158.268 25.3867 157.926 26.368C157.606 27.3493 157.126 28.192 156.486 28.896C155.868 29.6 155.121 30.144 154.246 30.528C153.372 30.8907 152.38 31.072 151.27 31.072ZM151.27 29.44C152.337 29.44 153.254 29.1947 154.022 28.704C154.812 28.192 155.409 27.456 155.814 26.496C156.241 25.536 156.454 24.384 156.454 23.04C156.454 21.0133 155.985 19.4453 155.046 18.336C154.129 17.2267 152.87 16.672 151.27 16.672C150.225 16.672 149.308 16.928 148.518 17.44C147.75 17.9307 147.153 18.656 146.726 19.616C146.321 20.5547 146.118 21.696 146.118 23.04C146.118 25.088 146.588 26.6667 147.526 27.776C148.465 28.8853 149.713 29.44 151.27 29.44Z" fill="#212121"/>
</svg>
