<svg width="48" height="48" viewBox="0 0 48 48" fill="none" xmlns="http://www.w3.org/2000/svg">
<path d="M32.0002 6.93552C34.9637 8.40822 37.0002 11.4663 37.0002 15C37.0002 18.5337 34.9637 21.5918 32.0002 23.0645M36.0002 33.5328C39.0232 34.9007 41.7453 37.13 44.0002 40M4.00024 40C7.89323 35.0452 13.1786 32 19.0002 32C24.8219 32 30.1073 35.0452 34.0002 40M28.0002 15C28.0002 19.9706 23.9708 24 19.0002 24C14.0297 24 10.0002 19.9706 10.0002 15C10.0002 10.0294 14.0297 6 19.0002 6C23.9708 6 28.0002 10.0294 28.0002 15Z" stroke="#163B6C" stroke-width="2" stroke-linecap="round" stroke-linejoin="round"/>
</svg>
