<svg width="18" height="18" viewBox="0 0 18 18" fill="none" xmlns="http://www.w3.org/2000/svg">
<path d="M17.8758 16.6479L12.079 10.851C12.9785 9.68806 13.4651 8.26618 13.4651 6.77065C13.4651 4.98047 12.7665 3.3019 11.5031 2.03627C10.2397 0.770647 8.55664 0.0742188 6.76869 0.0742188C4.98075 0.0742188 3.29771 0.772879 2.03432 2.03627C0.768694 3.29966 0.0722656 4.98047 0.0722656 6.77065C0.0722656 8.55859 0.770926 10.2416 2.03432 11.505C3.29771 12.7706 4.97852 13.4671 6.76869 13.4671C8.26423 13.4671 9.68387 12.9805 10.8468 12.0831L16.6437 17.8778C16.6607 17.8948 16.6809 17.9083 16.7031 17.9175C16.7253 17.9267 16.7491 17.9314 16.7732 17.9314C16.7972 17.9314 16.821 17.9267 16.8432 17.9175C16.8654 17.9083 16.8856 17.8948 16.9026 17.8778L17.8758 16.9068C17.8928 16.8898 17.9063 16.8696 17.9155 16.8474C17.9247 16.8252 17.9295 16.8014 17.9295 16.7773C17.9295 16.7533 17.9247 16.7295 17.9155 16.7073C17.9063 16.6851 17.8928 16.6649 17.8758 16.6479ZM10.3044 10.3064C9.35798 11.2506 8.10352 11.7706 6.76869 11.7706C5.43387 11.7706 4.17941 11.2506 3.23298 10.3064C2.28878 9.35993 1.76869 8.10547 1.76869 6.77065C1.76869 5.43583 2.28878 4.17913 3.23298 3.23493C4.17941 2.29074 5.43387 1.77065 6.76869 1.77065C8.10352 1.77065 9.36021 2.2885 10.3044 3.23493C11.2486 4.18136 11.7687 5.43583 11.7687 6.77065C11.7687 8.10547 11.2486 9.36217 10.3044 10.3064Z" fill="#242424" fill-opacity="0.6"/>
</svg>
