<svg width="48" height="48" viewBox="0 0 48 48" fill="none" xmlns="http://www.w3.org/2000/svg">
<path d="M22.6043 43.2289C23.047 43.4872 23.2684 43.6164 23.5809 43.6834C23.8234 43.7354 24.1771 43.7354 24.4196 43.6834C24.7321 43.6164 24.9534 43.4872 25.3962 43.2289C29.2923 40.9559 40.0002 33.816 40.0002 23.9992V16.3992C40.0002 14.2514 40.0002 13.1775 39.6692 12.4152C39.3327 11.6404 38.9974 11.2282 38.3074 10.741C37.6284 10.2616 36.2975 9.98481 33.6356 9.4312C30.7019 8.82103 28.4488 7.71923 26.389 6.1258C25.4013 5.36169 24.9074 4.97964 24.5209 4.87544C24.1131 4.76548 23.8874 4.76548 23.4796 4.87544C23.0931 4.97964 22.5992 5.36169 21.6115 6.1258C19.5517 7.71923 17.2986 8.82103 14.3648 9.4312C11.703 9.98481 10.3721 10.2616 9.69314 10.741C9.00309 11.2282 8.66782 11.6404 8.33132 12.4152C8.00024 13.1775 8.00024 14.2514 8.00024 16.3992V23.9992C8.00024 33.816 18.7082 40.9559 22.6043 43.2289Z" stroke="#163B6C" stroke-width="2" stroke-linecap="round" stroke-linejoin="round"/>
</svg>
