<svg width="40" height="40" viewBox="0 0 40 40" fill="none" xmlns="http://www.w3.org/2000/svg">
<path d="M24.9997 18.3333L21.6664 14.9999M12.083 27.9166L14.9033 27.6032C15.2479 27.5649 15.4202 27.5458 15.5812 27.4937C15.7241 27.4474 15.86 27.3821 15.9854 27.2994C16.1267 27.2062 16.2493 27.0836 16.4944 26.8385L27.4997 15.8333C28.4202 14.9128 28.4202 13.4204 27.4997 12.4999C26.5792 11.5795 25.0868 11.5795 24.1664 12.4999L13.1611 23.5052C12.916 23.7503 12.7934 23.8729 12.7002 24.0142C12.6175 24.1396 12.5522 24.2755 12.5059 24.4184C12.4538 24.5794 12.4347 24.7517 12.3964 25.0963L12.083 27.9166Z" stroke="#242424" stroke-width="2" stroke-linecap="round" stroke-linejoin="round"/>
</svg>
