<svg width="24" height="24" viewBox="0 0 24 24" fill="none" xmlns="http://www.w3.org/2000/svg">
<g clip-path="url(#clip0_306_982)">
<rect width="24" height="24" fill="white" fill-opacity="0.01"/>
<path fill-rule="evenodd" clip-rule="evenodd" d="M12 4.00012C10.067 4.00012 8.5 5.56713 8.5 7.50012C8.5 9.43312 10.067 11.0001 12 11.0001C13.933 11.0001 15.5 9.43312 15.5 7.50012C15.5 5.56713 13.933 4.00012 12 4.00012ZM6.5 7.50012C6.5 4.46256 8.96244 2.00012 12 2.00012C15.0376 2.00012 17.5 4.46256 17.5 7.50012C17.5 10.5377 15.0376 13.0001 12 13.0001C8.96244 13.0001 6.5 10.5377 6.5 7.50012ZM12 17.0001C8.8088 17.0001 5.89333 18.3891 3.7276 20.6861C3.34873 21.088 2.71584 21.1066 2.314 20.7277C1.91216 20.3489 1.89353 19.716 2.2724 19.3141C4.77826 16.6563 8.20523 15.0001 12 15.0001C15.7948 15.0001 19.2217 16.6563 21.7276 19.3141C22.1065 19.716 22.0878 20.3489 21.686 20.7277C21.2842 21.1066 20.6513 21.088 20.2724 20.6861C18.1067 18.3891 15.1912 17.0001 12 17.0001Z" fill="#212121"/>
</g>
<defs>
<clipPath id="clip0_306_982">
<rect width="24" height="24" fill="white"/>
</clipPath>
</defs>
</svg>
