<svg width="24" height="24" viewBox="0 0 24 24" fill="none" xmlns="http://www.w3.org/2000/svg">
<path fill-rule="evenodd" clip-rule="evenodd" d="M18.089 4.03767C17.6389 4.0009 17.0566 4.00012 16.2 4.00012H15C14.4477 4.00012 14 3.55241 14 3.00012C14 2.44784 14.4477 2.00012 15 2.00012H16.2L16.2413 2.00012C17.0463 2.00011 17.7106 2.0001 18.2518 2.04432C18.8139 2.09024 19.3306 2.18881 19.816 2.4361C20.5686 2.81959 21.1805 3.43151 21.564 4.18416C21.8113 4.6695 21.9099 5.1862 21.9558 5.7483C22 6.28949 22 6.95384 22 7.7588V7.80012V16.2001V16.2414C22 17.0464 22 17.7108 21.9558 18.2519C21.9099 18.814 21.8113 19.3307 21.564 19.8161C21.1805 20.5687 20.5686 21.1807 19.816 21.5641C19.3306 21.8114 18.8139 21.91 18.2518 21.9559C17.7106 22.0001 17.0463 22.0001 16.2413 22.0001H16.2H15C14.4477 22.0001 14 21.5524 14 21.0001C14 20.4478 14.4477 20.0001 15 20.0001H16.2C17.0566 20.0001 17.6389 19.9993 18.089 19.9626C18.5274 19.9268 18.7516 19.8618 18.908 19.7821C19.2843 19.5904 19.5903 19.2844 19.782 18.9081C19.8617 18.7517 19.9266 18.5275 19.9624 18.0891C19.9992 17.639 20 17.0567 20 16.2001V7.80012C20 6.94354 19.9992 6.36125 19.9624 5.91116C19.9266 5.47275 19.8617 5.24854 19.782 5.09214C19.5903 4.71582 19.2843 4.40986 18.908 4.21811L19.362 3.3271L18.908 4.21811C18.7516 4.13842 18.5274 4.07349 18.089 4.03767ZM9.29289 6.29302C9.68342 5.90249 10.3166 5.90249 10.7071 6.29302L15.7071 11.293C16.0976 11.6835 16.0976 12.3167 15.7071 12.7072L10.7071 17.7072C10.3166 18.0978 9.68342 18.0978 9.29289 17.7072C8.90237 17.3167 8.90237 16.6835 9.29289 16.293L12.5858 13.0001L3 13.0001C2.44772 13.0001 2 12.5524 2 12.0001C2 11.4478 2.44772 11.0001 3 11.0001L12.5858 11.0001L9.29289 7.70723C8.90237 7.31671 8.90237 6.68354 9.29289 6.29302Z" fill="#212121"/>
</svg>
