<svg width="16" height="14" viewBox="0 0 16 14" fill="none" xmlns="http://www.w3.org/2000/svg">
<path d="M15.0154 4.9298L10.5187 4.29107L8.50857 0.308118C8.45367 0.199068 8.36335 0.110788 8.25177 0.0571283C7.97194 -0.0778871 7.6319 0.0346257 7.49199 0.308118L5.48184 4.29107L0.985131 4.9298C0.861158 4.94711 0.74781 5.00423 0.661028 5.09078C0.556114 5.19617 0.498301 5.33796 0.500294 5.48499C0.502287 5.63202 0.563921 5.77227 0.671655 5.87491L3.92508 8.97507L3.15644 13.3527C3.13842 13.4545 3.14995 13.5592 3.18973 13.655C3.2295 13.7508 3.29594 13.8337 3.38149 13.8944C3.46704 13.9552 3.5683 13.9913 3.67377 13.9986C3.77924 14.0059 3.88471 13.9843 3.97821 13.936L8.00028 11.8692L12.0223 13.936C12.1322 13.9931 12.2597 14.0122 12.3819 13.9914C12.69 13.9395 12.8972 13.6539 12.8441 13.3527L12.0755 8.97507L15.3289 5.87491C15.4175 5.79009 15.4759 5.67931 15.4936 5.55814C15.5414 5.25522 15.3254 4.9748 15.0154 4.9298Z" fill="#FADB14"/>
</svg>
